<svg xmlns="http://www.w3.org/2000/svg"  viewBox="0 0 100 100" width="100px" height="100px"><path d="M50.976,97.953c-10.458,0-17.943-7.42-18.763-8.267c-5.834-5.841-8.646-16.384-9.684-21.183 c-2.552-0.548-4.353,1.125-6.103-0.876c-4.566-5.229-6.368-13.858-1.82-19.174c0.66-0.771,1.479-1.441,2.402-1.983 c-2.154-10.354-1.159-19.283,2.974-26.598c4.586-8.117,12.433-12.669,18.246-14.223c1.48-0.396,6.796-1.688,13.034-1.688 c10.572,0,15.867,3.76,18.519,7.55c6.889,2.557,11.792,6.82,14.588,12.693c3.827,8.036,2.586,17.056,1.144,22.63 c0.623,0.455,1.196,0.984,1.708,1.582c4.55,5.319,2.843,15.137-1.723,20.363c-1.564,1.791-3.528,3.045-5.714,3.681 c-1.018,4.825-3.505,11.327-9.469,17.299C69.501,90.582,61.893,97.953,50.976,97.953z" opacity=".35"/><path fill="#f2f2f2" d="M48.976,95.953c-10.458,0-17.943-7.42-18.763-8.267c-5.834-5.841-8.321-12.218-9.359-17.017 c-2.552-0.548-4.772-1.854-6.522-3.854c-4.566-5.229-6.273-15.047-1.726-20.362c0.66-0.771,1.479-1.441,2.402-1.983 c-2.154-10.354-1.159-19.283,2.974-26.598C22.568,9.755,30.415,5.203,36.228,3.649c1.48-0.396,6.796-1.688,13.034-1.688 c10.572,0,15.867,3.76,18.519,7.55c6.889,2.557,11.792,6.82,14.588,12.693c3.827,8.036,2.586,17.056,1.144,22.63 c0.623,0.455,1.196,0.984,1.708,1.582c4.55,5.319,2.843,15.137-1.723,20.363c-1.564,1.791-3.528,3.045-5.714,3.681 c-1.018,4.825-3.505,11.327-9.469,17.299C67.501,88.582,59.893,95.953,48.976,95.953z"/><path fill="#ffc7a3" d="M63.685,81.364c5.121-4.146,6.022-9.918,8.431-17.262c2.017,1.888,5.296,1.379,7.898-1.599 c2.83-3.239,3.582-7.934,1.681-10.486c-1.519-2.039-4.104-2.282-6.593-0.569c0.692-4.458,0.283-8.708,0.283-12.298 c0-16.628-11.279-26.675-26.085-26.675S23.216,22.523,23.216,39.151c0,3.655-0.289,7.994,0.578,12.54 c-0.578-2.16-4.731-1.77-6.318,0.36c-1.901,2.552-1.148,7.247,1.681,10.486c2.83,3.239,5.89,3.569,7.791,1.017 c0.008-0.01,0.013-0.022,0.021-0.032c1.739,7.963,2.65,13.331,7.249,17.635l10.177,7.89h9.61L63.685,81.364z"/><path fill="#40396e" d="M21.207,48.598c0,0,3.801-3.084,5.865-5.94c0,0,35.445-2.17,38.282-20.227 C68.409,2.995,44.331,6.657,37.519,8.479C31.549,10.075,12.316,19.02,21.207,48.598z"/><path fill="#40396e" d="M62.439,25.671c0,0-0.501,5.165,9.119,16.983l3.607,4.513l2.022,0.978 c0,0,11.646-27.202-13.105-34.612L62.439,25.671z"/><path fill="#40396e" d="M48.976,90.952c-8.546,0-14.903-6.468-15.169-6.743c-6.934-6.944-8.348-14.741-8.611-18.359 c-1.94,0.292-4.898,0.193-7.099-2.326c-3.074-3.519-4.458-10.587-1.691-13.821c1.018-1.189,3.212-2.103,5.511-1.711 c-0.6-3.426-0.888-5.928-0.888-8.841c0-16.723,11.89-28.861,28.271-28.861s28.271,12.138,28.271,28.861 c0,3.002-0.29,5.613-0.833,8.798c1.926-0.301,3.645,0.503,4.686,1.721c2.766,3.234,1.382,10.302-1.691,13.821 c-1.957,2.239-4.432,2.626-6.331,2.389c-0.27,3.638-1.699,11.412-8.625,18.347C64.508,84.497,58.007,90.952,48.976,90.952z M26.648,62.446c0.172,0,0.345,0.03,0.509,0.089c0.616,0.222,1.016,0.841,0.989,1.496c-0.042,1.008-0.183,10.081,7.801,18.075 c0.072,0.074,5.777,5.846,13.03,5.846c7.754,0,13.617-5.785,13.675-5.844c7.986-7.997,7.845-17.069,7.803-18.078 c-0.027-0.654,0.373-1.273,0.989-1.496c0.373-0.136,0.787-0.117,1.147,0.053c0.28,0.126,2.889,1.21,4.882-1.072 c2.473-2.831,3.097-8.231,1.672-9.897c-0.229-0.266-1.466-1.516-3.477,0.01c-0.495,0.375-1.17,0.408-1.697,0.081 c-0.528-0.327-0.8-0.946-0.684-1.556c0.833-4.37,1.285-7.417,1.285-11.004c0-14.985-10.628-25.861-25.271-25.861 S24.029,24.166,24.029,39.15c0,3.396,0.432,6.259,1.339,11.021c0.116,0.61-0.156,1.229-0.684,1.556 c-0.527,0.328-1.203,0.296-1.698-0.081c-1.924-1.463-4.002-0.343-4.302,0.006c-1.425,1.666-0.802,7.066,1.671,9.897 c2.106,2.411,5.699,1.016,5.736,1.002C26.271,62.482,26.459,62.446,26.648,62.446z"/><path fill="#40396e" d="M35.681,27.553c7.589,0,19.65-0.001,27.239-0.001c3.813,0,6.708,3.026,7.103,6.818 c1.468,14.094,3.454,16.827,3.454,16.827s3.903-2.833,1.33-0.879c0.866-4.546,1.264-7.512,1.264-11.167 c0-16.628-11.966-27.361-26.771-27.361S22.529,22.523,22.529,39.151c0,3.655,0.398,6.621,1.264,11.167 c-2.572-1.954,1.512,0.625,1.512,0.625s1.337-3.289,3.272-16.573C29.127,30.598,31.868,27.553,35.681,27.553z"/><circle cx="36.906" cy="53.941" r="3" fill="#40396e"/><circle cx="60.918" cy="53.941" r="3" fill="#40396e"/><path fill="#40396e" d="M39,72c1.236,3.461,5.24,6,10,6s8.764-2.539,10-6H39z"/></svg>